<svg width="16" height="16" viewBox="0 0 16 16" fill="none" xmlns="http://www.w3.org/2000/svg">
<rect width="16" height="16" rx="4" fill="black"/>
<path d="M11.2791 11.104L11.6031 11.62L9.39506 12.976C9.05906 13.08 8.73106 13.148 8.41106 13.18C8.09906 13.22 7.76306 13.24 7.40306 13.24C6.51506 13.24 5.72706 13.036 5.03906 12.628C4.35906 12.22 3.82706 11.66 3.44306 10.948C3.06706 10.228 2.87906 9.412 2.87906 8.5C2.87906 7.564 3.16306 6.7 3.73106 5.908C4.29906 5.108 5.00706 4.48 5.85506 4.024C6.70306 3.56 7.51106 3.328 8.27906 3.328C8.73506 3.328 9.26706 3.388 9.87506 3.508C10.4831 3.628 10.9271 3.756 11.2071 3.892V6.22H10.7511C9.95106 4.964 8.89506 4.336 7.58306 4.336C7.00706 4.336 6.48306 4.492 6.01106 4.804C5.53906 5.108 5.16706 5.536 4.89506 6.088C4.63106 6.632 4.49906 7.244 4.49906 7.924C4.49906 8.708 4.62706 9.424 4.88306 10.072C5.14706 10.72 5.54706 11.24 6.08306 11.632C6.61906 12.024 7.28306 12.22 8.07506 12.22C8.42706 12.22 8.71906 12.208 8.95106 12.184C9.18306 12.16 9.45906 12.084 9.77906 11.956V9.124L7.93106 8.608L8.17106 8.128H12.4191V8.5L11.2791 9.4V11.104Z" fill="white"/>
</svg>
