<svg width="16" height="16" viewBox="0 0 16 16" fill="none" xmlns="http://www.w3.org/2000/svg">
<rect width="16" height="16" rx="4" fill="black"/>
<path d="M11.7791 11.104L12.1031 11.62L9.89506 12.976C9.55906 13.08 9.23106 13.148 8.91106 13.18C8.59906 13.22 8.26306 13.24 7.90306 13.24C7.01506 13.24 6.22706 13.036 5.53906 12.628C4.85906 12.22 4.32706 11.66 3.94306 10.948C3.56706 10.228 3.37906 9.412 3.37906 8.5C3.37906 7.564 3.66306 6.7 4.23106 5.908C4.79906 5.108 5.50706 4.48 6.35506 4.024C7.20306 3.56 8.01106 3.328 8.77906 3.328C9.23506 3.328 9.76706 3.388 10.3751 3.508C10.9831 3.628 11.4271 3.756 11.7071 3.892V6.22H11.2511C10.4511 4.964 9.39506 4.336 8.08306 4.336C7.50706 4.336 6.98306 4.492 6.51106 4.804C6.03906 5.108 5.66706 5.536 5.39506 6.088C5.13106 6.632 4.99906 7.244 4.99906 7.924C4.99906 8.708 5.12706 9.424 5.38306 10.072C5.64706 10.72 6.04706 11.24 6.58306 11.632C7.11906 12.024 7.78306 12.22 8.57506 12.22C8.92706 12.22 9.21906 12.208 9.45106 12.184C9.68306 12.16 9.95906 12.084 10.2791 11.956V9.124L8.43106 8.608L8.67106 8.128H12.9191V8.5L11.7791 9.4V11.104Z" fill="white"/>
</svg>
