<svg width="16" height="16" viewBox="0 0 16 16" fill="none" xmlns="http://www.w3.org/2000/svg">
<rect width="16" height="16" rx="4" fill="black"/>
<path d="M12.7791 11.104L13.1031 11.62L10.8951 12.976C10.5591 13.08 10.2311 13.148 9.91106 13.18C9.59906 13.22 9.26306 13.24 8.90306 13.24C8.01506 13.24 7.22706 13.036 6.53906 12.628C5.85906 12.22 5.32706 11.66 4.94306 10.948C4.56706 10.228 4.37906 9.412 4.37906 8.5C4.37906 7.564 4.66306 6.7 5.23106 5.908C5.79906 5.108 6.50706 4.48 7.35506 4.024C8.20306 3.56 9.01106 3.328 9.77906 3.328C10.2351 3.328 10.7671 3.388 11.3751 3.508C11.9831 3.628 12.4271 3.756 12.7071 3.892V6.22H12.2511C11.4511 4.964 10.3951 4.336 9.08306 4.336C8.50706 4.336 7.98306 4.492 7.51106 4.804C7.03906 5.108 6.66706 5.536 6.39506 6.088C6.13106 6.632 5.99906 7.244 5.99906 7.924C5.99906 8.708 6.12706 9.424 6.38306 10.072C6.64706 10.72 7.04706 11.24 7.58306 11.632C8.11906 12.024 8.78306 12.22 9.57506 12.22C9.92706 12.22 10.2191 12.208 10.4511 12.184C10.6831 12.16 10.9591 12.084 11.2791 11.956V9.124L9.43106 8.608L9.67106 8.128H13.9191V8.5L12.7791 9.4V11.104Z" fill="white"/>
</svg>
